HIERARCHY
ROOT Hips
{
  OFFSET 5.80788e-005 67.184 3.4734
  CHANNELS 6 Xposition Yposition Zposition Zrotation Xrotation Yrotation
  JOINT Chest
  {
    OFFSET 0 8.7983 -4.7612
    CHANNELS 6 Xposition Yposition Zposition Zrotation Xrotation Yrotation
    JOINT Chest2
    {
      OFFSET 0 8.0291 0.4195
      CHANNELS 6 Xposition Yposition Zposition Zrotation Xrotation Yrotation
      JOINT Chest3
      {
        OFFSET 0 9.9351 -2.2114
        CHANNELS 6 Xposition Yposition Zposition Zrotation Xrotation Yrotation
        JOINT Neck
        {
          OFFSET 0 22.3885 -0.4656
          CHANNELS 6 Xposition Yposition Zposition Zrotation Xrotation Yrotation
          JOINT Head
          {
            OFFSET -0.0001 12.643 3.4389
            CHANNELS 6 Xposition Yposition Zposition Zrotation Xrotation Yrotation
            End Site
            {
              OFFSET 0.0001 17.6655 0.5274
            }
          }
        }
        JOINT LeftCollar
        {
          OFFSET 2.2603 21.606 7.4023
          CHANNELS 6 Xposition Yposition Zposition Zrotation Xrotation Yrotation
          JOINT LeftShoulder
          {
            OFFSET 13.5163 -1.1332 -5.0146
            CHANNELS 6 Xposition Yposition Zposition Zrotation Xrotation Yrotation
            JOINT LeftElbow
            {
              OFFSET -0.0995 -28.05 -0.2431
              CHANNELS 6 Xposition Yposition Zposition Zrotation Xrotation Yrotation
              JOINT LeftWrist
              {
                OFFSET 0.0679 -23.3996 -0.1402
                CHANNELS 6 Xposition Yposition Zposition Zrotation Xrotation Yrotation
                JOINT LeftFinger1
                {
                  OFFSET 0.7932 -9.069 2.5189
                  CHANNELS 6 Xposition Yposition Zposition Zrotation Xrotation Yrotation
                  JOINT LeftFinger11
                  {
                    OFFSET -0.8272 -3.3923 0.5977
                    CHANNELS 6 Xposition Yposition Zposition Zrotation Xrotation Yrotation
                    JOINT LeftFinger12
                    {
                      OFFSET -0.5649 -2.3158 0.4082
                      CHANNELS 6 Xposition Yposition Zposition Zrotation Xrotation Yrotation
                      End Site
                      {
                        OFFSET -0.4919 -1.6479 0.2673
                      }
                    }
                  }
                }
                JOINT LeftFinger2
                {
                  OFFSET 0.9159 -9.2044 0.2193
                  CHANNELS 6 Xposition Yposition Zposition Zrotation Xrotation Yrotation
                  JOINT LeftFinger21
                  {
                    OFFSET 0.0117 -4.1944 -0.0248
                    CHANNELS 6 Xposition Yposition Zposition Zrotation Xrotation Yrotation
                    JOINT LeftFinger22
                    {
                      OFFSET 0.0071 -2.3249 -0.0142
                      CHANNELS 6 Xposition Yposition Zposition Zrotation Xrotation Yrotation
                      End Site
                      {
                        OFFSET -0.1475 -2.0882 0.0028
                      }
                    }
                  }
                }
                JOINT LeftFinger3
                {
                  OFFSET 0.6113 -8.7231 -2.0637
                  CHANNELS 6 Xposition Yposition Zposition Zrotation Xrotation Yrotation
                  JOINT LeftFinger31
                  {
                    OFFSET -0.1927 -3.8059 -0.2383
                    CHANNELS 6 Xposition Yposition Zposition Zrotation Xrotation Yrotation
                    JOINT LeftFinger32
                    {
                      OFFSET -0.1091 -2.1688 -0.1362
                      CHANNELS 6 Xposition Yposition Zposition Zrotation Xrotation Yrotation
                      End Site
                      {
                        OFFSET -0.2358 -1.9176 -0.0906
                      }
                    }
                  }
                }
                JOINT LeftFinger4
                {
                  OFFSET -0.6151 -8.0947 -3.5641
                  CHANNELS 6 Xposition Yposition Zposition Zrotation Xrotation Yrotation
                  JOINT LeftFinger41
                  {
                    OFFSET -0.4882 -2.341 -0.6462
                    CHANNELS 6 Xposition Yposition Zposition Zrotation Xrotation Yrotation
                    JOINT LeftFinger42
                    {
                      OFFSET -0.3575 -1.7167 -0.4742
                      CHANNELS 6 Xposition Yposition Zposition Zrotation Xrotation Yrotation
                      End Site
                      {
                        OFFSET -0.4187 -1.5237 -0.3496
                      }
                    }
                  }
                }
                JOINT LeftFinger0
                {
                  OFFSET -1.42 -1.8761 1.4223
                  CHANNELS 6 Xposition Yposition Zposition Zrotation Xrotation Yrotation
                  JOINT LeftFinger01
                  {
                    OFFSET -1.1471 -3.4929 2.6334
                    CHANNELS 6 Xposition Yposition Zposition Zrotation Xrotation Yrotation
                    JOINT LeftFinger02
                    {
                      OFFSET -0.823 -2.3 1.6571
                      CHANNELS 6 Xposition Yposition Zposition Zrotation Xrotation Yrotation
                      End Site
                      {
                        OFFSET -0.5822 -1.6914 1.1582
                      }
                    }
                  }
                }
              }
            }
          }
        }
        JOINT RightCollar
        {
          OFFSET -2.2603 21.606 7.4023
          CHANNELS 6 Xposition Yposition Zposition Zrotation Xrotation Yrotation
          JOINT RightShoulder
          {
            OFFSET -13.5187 -1.1334 -5.0155
            CHANNELS 6 Xposition Yposition Zposition Zrotation Xrotation Yrotation
            JOINT RightElbow
            {
              OFFSET 0.0994 -28.0499 -0.2431
              CHANNELS 6 Xposition Yposition Zposition Zrotation Xrotation Yrotation
              JOINT RightWrist
              {
                OFFSET -0.0679 -23.3996 -0.1402
                CHANNELS 6 Xposition Yposition Zposition Zrotation Xrotation Yrotation
                JOINT RightFinger1
                {
                  OFFSET -0.7932 -9.0691 2.5189
                  CHANNELS 6 Xposition Yposition Zposition Zrotation Xrotation Yrotation
                  JOINT RightFinger11
                  {
                    OFFSET 0.8272 -3.3923 0.5977
                    CHANNELS 6 Xposition Yposition Zposition Zrotation Xrotation Yrotation
                    JOINT RightFinger12
                    {
                      OFFSET 0.565 -2.3158 0.4082
                      CHANNELS 6 Xposition Yposition Zposition Zrotation Xrotation Yrotation
                      End Site
                      {
                        OFFSET 0.4919 -1.6479 0.2673
                      }
                    }
                  }
                }
                JOINT RightFinger2
                {
                  OFFSET -0.916 -9.2044 0.2193
                  CHANNELS 6 Xposition Yposition Zposition Zrotation Xrotation Yrotation
                  JOINT RightFinger21
                  {
                    OFFSET -0.0117 -4.1944 -0.0248
                    CHANNELS 6 Xposition Yposition Zposition Zrotation Xrotation Yrotation
                    JOINT RightFinger22
                    {
                      OFFSET -0.0071 -2.3249 -0.0142
                      CHANNELS 6 Xposition Yposition Zposition Zrotation Xrotation Yrotation
                      End Site
                      {
                        OFFSET 0.1475 -2.0882 0.0028
                      }
                    }
                  }
                }
                JOINT RightFinger3
                {
                  OFFSET -0.6113 -8.7231 -2.0637
                  CHANNELS 6 Xposition Yposition Zposition Zrotation Xrotation Yrotation
                  JOINT RightFinger31
                  {
                    OFFSET 0.1927 -3.8059 -0.2383
                    CHANNELS 6 Xposition Yposition Zposition Zrotation Xrotation Yrotation
                    JOINT RightFinger32
                    {
                      OFFSET 0.1091 -2.1688 -0.1362
                      CHANNELS 6 Xposition Yposition Zposition Zrotation Xrotation Yrotation
                      End Site
                      {
                        OFFSET 0.2358 -1.9176 -0.0906
                      }
                    }
                  }
                }
                JOINT RightFinger4
                {
                  OFFSET 0.6151 -8.0947 -3.564
                  CHANNELS 6 Xposition Yposition Zposition Zrotation Xrotation Yrotation
                  JOINT RightFinger41
                  {
                    OFFSET 0.4882 -2.341 -0.6462
                    CHANNELS 6 Xposition Yposition Zposition Zrotation Xrotation Yrotation
                    JOINT RightFinger42
                    {
                      OFFSET 0.3574 -1.7166 -0.4742
                      CHANNELS 6 Xposition Yposition Zposition Zrotation Xrotation Yrotation
                      End Site
                      {
                        OFFSET 0.4187 -1.5237 -0.3496
                      }
                    }
                  }
                }
                JOINT RightFinger0
                {
                  OFFSET 1.4199 -1.8761 1.4221
                  CHANNELS 6 Xposition Yposition Zposition Zrotation Xrotation Yrotation
                  JOINT RightFinger01
                  {
                    OFFSET 1.1472 -3.4929 2.6336
                    CHANNELS 6 Xposition Yposition Zposition Zrotation Xrotation Yrotation
                    JOINT RightFinger02
                    {
                      OFFSET 0.8229 -2.3 1.6571
                      CHANNELS 6 Xposition Yposition Zposition Zrotation Xrotation Yrotation
                      End Site
                      {
                        OFFSET 0.5822 -1.6914 1.1582
                      }
                    }
                  }
                }
              }
            }
          }
        }
      }
    }
  }
  JOINT RightHip
  {
    OFFSET -9.412 3.9771 -0.7758
    CHANNELS 6 Xposition Yposition Zposition Zrotation Xrotation Yrotation
    JOINT RightKnee
    {
      OFFSET -0.7531 -40.938 0
      CHANNELS 6 Xposition Yposition Zposition Zrotation Xrotation Yrotation
      JOINT RightAnkle
      {
        OFFSET 0 -40.1986 0
        CHANNELS 6 Xposition Yposition Zposition Zrotation Xrotation Yrotation
        JOINT RightToe
        {
          OFFSET 0 -4.4182 9.239
          CHANNELS 6 Xposition Yposition Zposition Zrotation Xrotation Yrotation
          End Site
          {
            OFFSET 0 0 6.1981
          }
        }
      }
    }
  }
  JOINT LeftHip
  {
    OFFSET 9.4119 3.9773 -0.7758
    CHANNELS 6 Xposition Yposition Zposition Zrotation Xrotation Yrotation
    JOINT LeftKnee
    {
      OFFSET 0.7532 -40.9383 0
      CHANNELS 6 Xposition Yposition Zposition Zrotation Xrotation Yrotation
      JOINT LeftAnkle
      {
        OFFSET 0 -40.1986 0
        CHANNELS 6 Xposition Yposition Zposition Zrotation Xrotation Yrotation
        JOINT LeftToe
        {
          OFFSET 0 -4.4182 9.239
          CHANNELS 6 Xposition Yposition Zposition Zrotation Xrotation Yrotation
          End Site
          {
            OFFSET 0 0 6.1981
          }
        }
      }
    }
  }
}
MOTION
Frames:	4
Frame Time:	0.0333333
5.80788e-005 67.184 3.4734 0 0 -0 0 8.7983 -4.7612 0 0 -0 0 8.0291 0.4195 0 0 -0 0 9.9351 -2.2114 0 0 -0 0 22.3885 -0.4656 0 0 -0 -0.0001 12.643 3.4389 0 0 -0 2.2603 21.606 7.4023 0 0 -12.5014 13.5163 -1.1332 -5.0146 88.1196 14.2451 10.6914 -0.0995 -28.05 -0.2431 -0.00160068 -0.00239207 0.000740045 0.0679 -23.3996 -0.1402 -8.4365e-005 7.00714e-005 -9.52055e-007 0.7932 -9.069 2.5189 9.93923e-017 -1.98785e-016 -1.59028e-015 -0.8272 -3.3923 0.5977 9.93923e-017 -5.96354e-016 -1.59028e-015 -0.5649 -2.3158 0.4082 -9.93923e-017 -5.96354e-016 -1.59028e-015 0.9159 -9.2044 0.2193 9.93923e-017 -1.98785e-016 -1.59028e-015 0.0117 -4.1944 -0.0248 -0.0128176 0.00232552 8.52707e-005 0.0071 -2.3249 -0.0142 9.93923e-017 5.96354e-016 -0 0.6113 -8.7231 -2.0637 9.93923e-017 -1.98785e-016 -1.59028e-015 -0.1927 -3.8059 -0.2383 -0.0160551 0.00299681 0.000857156 -0.1091 -2.1688 -0.1362 -2.48481e-016 0 3.18055e-015 -0.6151 -8.0947 -3.5641 9.93923e-017 -1.98785e-016 -1.59028e-015 -0.4882 -2.341 -0.6462 -0.0125865 0.0031206 0.00282719 -0.3575 -1.7167 -0.4742 0 1.98785e-016 -0 -1.42 -1.8761 1.4223 9.93923e-017 -1.98785e-016 -1.59028e-015 -1.1471 -3.4929 2.6334 9.93923e-017 -5.96354e-016 -1.59028e-015 -0.823 -2.3 1.6571 -9.93923e-017 -5.96354e-016 -1.59028e-015 -2.2603 21.606 7.4023 -0.865644 0.16582 7.03859 -13.5187 -1.1334 -5.0155 -88.0329 10.2057 -10.5567 0.0994 -28.0499 -0.2431 0.0015593 -0.00248883 -0.000788628 -0.0679 -23.3996 -0.1402 7.87605e-005 4.10553e-005 1.24965e-005 -0.7932 -9.0691 2.5189 -3.97569e-016 -7.95139e-016 3.18055e-015 0.8272 -3.3923 0.5977 -1.98785e-016 -3.97569e-016 3.18055e-015 0.565 -2.3158 0.4082 -1.98785e-016 0 3.18055e-015 -0.916 -9.2044 0.2193 -3.97569e-016 -7.95139e-016 3.18055e-015 -0.0117 -4.1944 -0.0248 0.0129473 0.00231697 -8.70038e-005 -0.0071 -2.3249 -0.0142 9.93923e-017 -7.95139e-016 1.59028e-015 -0.6113 -8.7231 -2.0637 -3.97569e-016 -7.95139e-016 3.18055e-015 0.1927 -3.8059 -0.2383 0.0163314 0.00303369 -0.000872333 0.1091 -2.1688 -0.1362 3.97569e-016 7.95139e-016 -3.18055e-015 0.6151 -8.0947 -3.564 -3.97569e-016 -7.95139e-016 3.18055e-015 0.4882 -2.341 -0.6462 0.0145763 0.00367772 -0.00326275 0.3574 -1.7166 -0.4742 9.93923e-017 -3.97569e-016 -0 1.4199 -1.8761 1.4221 -3.97569e-016 -7.95139e-016 3.18055e-015 1.1472 -3.4929 2.6336 -1.98785e-016 -3.97569e-016 3.18055e-015 0.8229 -2.3 1.6571 -1.98785e-016 0 3.18055e-015 -9.412 3.9771 -0.7758 3.42485 1.36937 -0.0640303 -0.7531 -40.938 0 0.000136572 0.69354 0.00145564 1.77636e-015 -40.1986 -1.11022e-016 -3.42573 -2.06297 -0.0607933 8.88178e-016 -4.4182 9.239 -3.19502e-024 0 -1.48106e-024 9.4119 3.9773 -0.7758 -3.42498 1.36123 0.0639712 0.7532 -40.9383 2.22045e-016 -6.769e-005 0.712612 -0.0012277 8.88179e-016 -40.1986 0 3.42582 -2.07388 0.0612819 -8.88178e-016 -4.4182 9.239 2.55305e-023 0 -2.31416e-026 
-0.359595 30.0051 -20.7217 -17.1461 -15.5427 130.975 1.77636e-015 8.7983 -4.7612 0.191737 3.11845 -0.193418 3.55271e-015 8.0291 0.4195 0.39494 6.23623 -0.398328 1.77636e-015 9.9351 -2.2114 0.394927 6.23624 -0.398295 1.77636e-015 22.3885 -0.4656 1.76201e-005 0.561009 -3.26344e-005 -0.0001 12.643 3.4389 0.244789 0.0919646 1.1991e-005 2.2603 21.606 7.4023 -10.2469 2.97272 -33.3607 13.5163 -1.1332 -5.0146 52.7705 -3.97199 20.2808 -0.0995 -28.05 -0.2431 -3.37547 -32.6375 -0.212591 0.0679 -23.3996 -0.1402 -5.70854 0.696767 0.977272 0.7932 -9.069 2.5189 1.10348e-032 -3.97569e-016 1.59028e-015 -0.8272 -3.3923 0.5977 -3.18055e-015 -1.19271e-015 1.59028e-015 -0.5649 -2.3158 0.4082 -3.18055e-015 -2.38542e-015 1.59028e-015 0.9159 -9.2044 0.2193 1.10348e-032 -3.97569e-016 1.59028e-015 0.0117 -4.1944 -0.0248 -0.0127895 0.00232187 8.35084e-005 0.0071 -2.3249 -0.0142 -3.18055e-015 -3.97569e-015 -0 0.6113 -8.7231 -2.0637 1.10348e-032 -3.97569e-016 1.59028e-015 -0.1927 -3.8059 -0.2383 -0.016124 0.00301053 0.000859165 -0.1091 -2.1688 -0.1362 5.88304e-006 -7.92813e-007 -5.23869e-007 -0.6151 -8.0947 -3.5641 1.10348e-032 -3.97569e-016 1.59028e-015 -0.4882 -2.341 -0.6462 -0.012549 0.00311098 0.00281433 -0.3575 -1.7167 -0.4742 -6.36111e-015 -3.97569e-015 -3.18055e-015 -1.42 -1.8761 1.4223 1.10348e-032 -3.97569e-016 1.59028e-015 -1.1471 -3.4929 2.6334 -3.18055e-015 -1.19271e-015 1.59028e-015 -0.823 -2.3 1.6571 -3.18055e-015 -2.38542e-015 1.59028e-015 -2.2603 21.606 7.4023 26.3431 6.05661 0.397091 -13.5187 -1.1334 -5.0155 -56.0745 6.98378 27.4891 0.0994 -28.0499 -0.2431 10.1943 -34.8008 -54.2107 -0.0679 -23.3996 -0.1402 3.53831 5.34619 -35.446 -0.7932 -9.06911 2.5189 1.32417e-031 2.38542e-015 -3.18055e-015 0.8272 -3.3923 0.5977 -8.53935e-007 -6.02278e-006 4.34628e-006 0.565 -2.3158 0.4082 7.03728e-006 2.65836e-006 2.91718e-006 -0.916 -9.20441 0.2193 1.32417e-031 2.38542e-015 -3.18055e-015 -0.0117 -4.1944 -0.0248 0.0129473 0.00231189 -9.28961e-005 -0.0071 -2.3249 -0.0142 7.57678e-006 2.65248e-006 2.29517e-006 -0.6113 -8.7231 -2.0637 1.32417e-031 2.38542e-015 -3.18055e-015 0.1927 -3.8059 -0.2383 0.0163327 0.00303531 -0.000861201 0.1091 -2.1688 -0.1362 4.00619e-006 6.1976e-006 1.99948e-006 0.6151 -8.0947 -3.564 1.32417e-031 2.38542e-015 -3.18055e-015 0.4882 -2.341 -0.6462 0.0145563 0.00367015 -0.00326941 0.3574 -1.7166 -0.4742 1.07344e-005 9.53421e-006 5.69389e-006 1.4199 -1.8761 1.4221 1.32417e-031 2.38542e-015 -3.18055e-015 1.1472 -3.4929 2.6336 -8.53935e-007 -6.02278e-006 4.34628e-006 0.8229 -2.3 1.6571 7.03728e-006 2.65836e-006 2.91718e-006 -9.412 3.9771 -0.7758 -41.6589 -49.5626 -60.046 -0.7531 -40.938 3.55271e-015 -123.947 62.1191 147.054 5.32907e-015 -40.1986 0 20.2456 33.6966 -17.4693 -8.88178e-016 -4.4182 9.239 -3.18055e-015 -3.97569e-016 1.59028e-015 9.4119 3.9773 -0.7758 41.5547 -49.5889 59.9423 0.7532 -40.9383 7.10543e-015 123.956 62.1544 -147.029 0 -40.1986 1.77636e-015 -20.1421 33.3054 17.4443 0 -4.4182 9.239 2.97405e-006 5.10876e-006 -4.90738e-006 
-0.247283 13.9993 -28.3276 8.59393 -32.2343 -164.181 0 8.7983 -4.7612 0.291856 4.41922 -0.276634 0 8.0291 0.4195 0.607903 8.83693 -0.578497 -8.88178e-016 9.9351 -2.2114 0.607903 8.83693 -0.578497 0 22.3885 -0.4656 2.39911e-006 0.607827 -2.1665e-006 -0.0001 12.643 3.4389 0.354948 0.133364 4.14288e-006 2.2603 21.606 7.4023 -14.4085 4.64796 -42.7139 13.5163 -1.1332 -5.0146 38.3359 -13.3321 24.0664 -0.0995 -28.05 -0.2431 -6.62704 -46.8929 -2.53679 0.0679 -23.3996 -0.1402 -8.32869 0.826493 1.3519 0.7932 -9.069 2.5189 -5.71936e-006 -5.49953e-007 1.61608e-006 -0.8272 -3.3923 0.5977 5.98889e-006 -1.10227e-006 -8.2209e-007 -0.5649 -2.3158 0.4082 -5.71936e-006 1.12008e-006 1.61608e-006 0.9159 -9.2044 0.2193 -5.71936e-006 -5.49953e-007 1.61608e-006 0.0117 -4.1944 -0.0248 -0.0128379 0.00233301 8.72742e-005 0.0071 -2.3249 -0.0142 4.37326e-015 -6.36111e-015 -3.18055e-015 0.6113 -8.7231 -2.0637 -5.71936e-006 -5.49953e-007 1.61608e-006 -0.1927 -3.8059 -0.2383 -0.0160481 0.00299689 0.000857159 -0.1091 -2.1688 -0.1362 -9.26435e-006 2.97817e-006 1.26104e-006 -0.6151 -8.0947 -3.5641 -5.71936e-006 -5.49953e-007 1.61608e-006 -0.4882 -2.341 -0.6462 -0.0126183 0.00312688 0.00283194 -0.3575 -1.7167 -0.4742 1.19271e-014 9.54166e-015 -1.59028e-015 -1.42 -1.8761 1.4223 -5.71936e-006 -5.49953e-007 1.61608e-006 -1.1471 -3.4929 2.6334 5.98889e-006 -1.10227e-006 -8.2209e-007 -0.823 -2.3 1.6571 -5.71936e-006 1.12008e-006 1.61608e-006 -2.2603 21.606 7.4023 39.1401 8.61442 -3.13573 -13.5187 -1.1334 -5.0155 -41.6899 4.64628 44.8973 0.0994 -28.0499 -0.2431 16.9885 -50.6774 -75.123 -0.0679 -23.3996 -0.1402 5.70742 6.93393 -51.5128 -0.7932 -9.0691 2.5189 -1.85577e-006 -2.52204e-006 -1.49515e-006 0.8272 -3.3923 0.5977 3.18055e-015 -1.59028e-015 -3.18055e-015 0.565 -2.3158 0.4082 -1.69925e-006 3.93592e-006 -1.77321e-006 -0.916 -9.2044 0.2193 -1.85577e-006 -2.52204e-006 -1.49515e-006 -0.0117 -4.1944 -0.0248 0.0129543 0.0023218 -8.80918e-005 -0.0071 -2.3249 -0.0142 3.18055e-015 -9.54166e-015 -1.59028e-014 -0.6113 -8.7231 -2.0637 -1.85577e-006 -2.52204e-006 -1.49515e-006 0.1927 -3.8059 -0.2383 0.0163038 0.00303468 -0.000865754 0.1091 -2.1688 -0.1362 1.27222e-014 -9.54166e-015 -3.18055e-015 0.6151 -8.0947 -3.564 -1.85577e-006 -2.52204e-006 -1.49515e-006 0.4882 -2.341 -0.6462 0.0145916 0.0036815 -0.00324605 0.3574 -1.7166 -0.4742 1.37427e-006 5.15983e-006 -8.83711e-006 1.4199 -1.8761 1.4221 -1.85577e-006 -2.52204e-006 -1.49515e-006 1.1472 -3.4929 2.6336 3.18055e-015 -1.59028e-015 -3.18055e-015 0.8229 -2.3 1.6571 -1.69925e-006 3.93592e-006 -1.77321e-006 -9.412 3.9771 -0.7758 -87.2818 -43.6814 -92.9611 -0.7531 -40.938 0 -139.352 20.0305 158.475 0 -40.1986 -3.10862e-015 44.3798 49.8433 -32.2118 -3.55271e-015 -4.4182 9.239 7.05611e-007 1.42834e-007 1.54681e-006 9.4119 3.9773 -0.7758 87.2124 -43.7291 92.9421 0.7532 -40.9383 0 139.386 20.0461 -158.488 0 -40.1986 -4.44089e-016 -43.9296 49.2965 31.9095 3.55271e-015 -4.4182 9.239 -7.95139e-016 0 3.18055e-015 
-0.615939 17.401 -27.0361 -0.000826744 -30.7696 179.998 0 8.7983 -4.7612 0.259273 3.90314 -0.261632 1.11022e-016 8.0291 0.4195 0.538337 7.80502 -0.54291 0 9.9351 -2.2114 0.538338 7.80505 -0.542912 0 22.3885 -0.4656 4.56346e-006 0.140588 -4.53407e-006 -0.0001 12.643 3.4389 0.330472 0.124161 -1.73359e-007 2.2603 21.606 7.4023 -14.1112 5.81753 -40.4707 13.5163 -1.1332 -5.0146 41.9174 -11.0187 23.3943 -0.0995 -28.05 -0.2431 -5.35464 -43.2568 -1.55384 0.0679 -23.3996 -0.1402 -7.86028 0.384925 1.0467 0.7932 -9.069 2.5189 2.64834e-031 4.77083e-015 -3.18055e-015 -0.8272 -3.3923 0.5977 -3.51837e-006 -1.89519e-006 2.95952e-006 -0.5649 -2.3158 0.4082 -1.59028e-015 1.59028e-015 -0 0.9159 -9.2044 0.2193 2.64834e-031 4.77083e-015 -3.18055e-015 0.0117 -4.1944 -0.0248 -0.012808 0.0023218 8.15255e-005 0.0071 -2.3249 -0.0142 -4.77083e-015 3.18055e-015 3.18055e-015 0.6113 -8.7231 -2.0637 2.64834e-031 4.77083e-015 -3.18055e-015 -0.1927 -3.8059 -0.2383 -0.0160721 0.00299665 0.000849274 -0.1091 -2.1688 -0.1362 -5.29669e-031 4.77083e-015 6.36111e-015 -0.6151 -8.0947 -3.5641 2.64834e-031 4.77083e-015 -3.18055e-015 -0.4882 -2.341 -0.6462 -0.0125939 0.00312402 0.00282463 -0.3575 -1.7167 -0.4742 -1.67728e-030 -3.02153e-014 -3.18055e-015 -1.42 -1.8761 1.4223 2.64834e-031 4.77083e-015 -3.18055e-015 -1.1471 -3.4929 2.6334 -3.51837e-006 -1.89519e-006 2.95952e-006 -0.823 -2.3 1.6571 -1.59028e-015 1.59028e-015 -0 -2.2603 21.606 7.4023 36.4906 7.99075 -3.4261 -13.5187 -1.1334 -5.0155 -44.7643 5.82599 40.9988 0.0994 -28.0499 -0.2431 15.1965 -47.1782 -70.7893 -0.0679 -23.3996 -0.1402 7.08198 5.49961 -48.0786 -0.7932 -9.0691 2.5189 3.18055e-015 -1.43125e-014 -3.18055e-015 0.8272 -3.3923 0.5977 -3.48623e-006 7.98996e-006 -3.20912e-006 0.565 -2.3158 0.4082 -6.1047e-006 -3.8162e-006 1.27533e-005 -0.916 -9.2044 0.2193 3.18055e-015 -1.43125e-014 -3.18055e-015 -0.0117 -4.1944 -0.0248 0.0129446 0.00232237 -8.07135e-005 -0.0071 -2.3249 -0.0142 2.94452e-006 -6.30118e-006 2.38113e-006 -0.6113 -8.7231 -2.0637 3.18055e-015 -1.43125e-014 -3.18055e-015 0.1927 -3.8059 -0.2383 0.0163242 0.00303323 -0.000864342 0.1091 -2.1688 -0.1362 6.36111e-015 1.59028e-015 9.54166e-015 0.6151 -8.0947 -3.564 3.18055e-015 -1.43125e-014 -3.18055e-015 0.4882 -2.341 -0.6462 0.0145748 0.00368633 -0.00325632 0.3574 -1.7166 -0.4742 9.54166e-015 4.77083e-015 -6.36111e-015 1.4199 -1.8761 1.4221 3.18055e-015 -1.43125e-014 -3.18055e-015 1.1472 -3.4929 2.6336 -3.48623e-006 7.98996e-006 -3.20912e-006 0.8229 -2.3 1.6571 -6.1047e-006 -3.8162e-006 1.27533e-005 -9.412 3.9771 -0.7758 -78.1451 -45.542 -88.3287 -0.7531 -40.938 0 -137.086 28.7275 158.856 0 -40.1986 0 37.6082 45.6795 -28.604 0 -4.4182 9.239 -5.08367e-006 -1.07078e-006 5.72465e-007 9.4119 3.9773 -0.7758 78.0609 -45.5872 88.2793 0.7532 -40.9383 0 137.109 28.7539 -158.86 7.10543e-015 -40.1986 -1.33227e-015 -37.2757 45.1633 28.3995 0 -4.4182 9.239 4.3018e-006 5.3379e-006 -2.04322e-006 
